<svg id="visual" viewBox="0 0 900 600" width="900" height="600" xmlns="http://www.w3.org/2000/svg" xmlns:xlink="http://www.w3.org/1999/xlink" version="1.1"><path d="M555 600L557.5 585.7C560 571.3 565 542.7 579.2 514.2C593.3 485.7 616.7 457.3 625.5 428.8C634.3 400.3 628.7 371.7 613 343C597.3 314.3 571.7 285.7 562.8 257C554 228.3 562 199.7 579.3 171.2C596.7 142.7 623.3 114.3 640.7 85.8C658 57.3 666 28.7 670 14.3L674 0L900 0L900 14.3C900 28.7 900 57.3 900 85.8C900 114.3 900 142.7 900 171.2C900 199.7 900 228.3 900 257C900 285.7 900 314.3 900 343C900 371.7 900 400.3 900 428.8C900 457.3 900 485.7 900 514.2C900 542.7 900 571.3 900 585.7L900 600Z" fill="#0344a7"></path><path d="M635 600L632.2 585.7C629.3 571.3 623.7 542.7 623 514.2C622.3 485.7 626.7 457.3 640.7 428.8C654.7 400.3 678.3 371.7 683 343C687.7 314.3 673.3 285.7 657.2 257C641 228.3 623 199.7 625 171.2C627 142.7 649 114.3 664.2 85.8C679.3 57.3 687.7 28.7 691.8 14.3L696 0L900 0L900 14.3C900 28.7 900 57.3 900 85.8C900 114.3 900 142.7 900 171.2C900 199.7 900 228.3 900 257C900 285.7 900 314.3 900 343C900 371.7 900 400.3 900 428.8C900 457.3 900 485.7 900 514.2C900 542.7 900 571.3 900 585.7L900 600Z" fill="#1d338e"></path><path d="M668 600L675.3 585.7C682.7 571.3 697.3 542.7 700.7 514.2C704 485.7 696 457.3 688.8 428.8C681.7 400.3 675.3 371.7 671.8 343C668.3 314.3 667.7 285.7 667 257C666.3 228.3 665.7 199.7 681.8 171.2C698 142.7 731 114.3 740.7 85.8C750.3 57.3 736.7 28.7 729.8 14.3L723 0L900 0L900 14.3C900 28.7 900 57.3 900 85.8C900 114.3 900 142.7 900 171.2C900 199.7 900 228.3 900 257C900 285.7 900 314.3 900 343C900 371.7 900 400.3 900 428.8C900 457.3 900 485.7 900 514.2C900 542.7 900 571.3 900 585.7L900 600Z" fill="#232375"></path><path d="M816 600L808.2 585.7C800.3 571.3 784.7 542.7 775.5 514.2C766.3 485.7 763.7 457.3 762.7 428.8C761.7 400.3 762.3 371.7 771.2 343C780 314.3 797 285.7 799 257C801 228.3 788 199.7 780.5 171.2C773 142.7 771 114.3 770.2 85.8C769.3 57.3 769.7 28.7 769.8 14.3L770 0L900 0L900 14.3C900 28.7 900 57.3 900 85.8C900 114.3 900 142.7 900 171.2C900 199.7 900 228.3 900 257C900 285.7 900 314.3 900 343C900 371.7 900 400.3 900 428.8C900 457.3 900 485.7 900 514.2C900 542.7 900 571.3 900 585.7L900 600Z" fill="#23135d"></path><path d="M824 600L827 585.7C830 571.3 836 542.7 841.5 514.2C847 485.7 852 457.3 843.2 428.8C834.3 400.3 811.7 371.7 809.7 343C807.7 314.3 826.3 285.7 837 257C847.7 228.3 850.3 199.7 847 171.2C843.7 142.7 834.3 114.3 833.7 85.8C833 57.3 841 28.7 845 14.3L849 0L900 0L900 14.3C900 28.7 900 57.3 900 85.8C900 114.3 900 142.7 900 171.2C900 199.7 900 228.3 900 257C900 285.7 900 314.3 900 343C900 371.7 900 400.3 900 428.8C900 457.3 900 485.7 900 514.2C900 542.7 900 571.3 900 585.7L900 600Z" fill="#1e0446"></path></svg>