<svg id="visual" viewBox="0 0 960 540" width="960" height="540" xmlns="http://www.w3.org/2000/svg" xmlns:xlink="http://www.w3.org/1999/xlink" version="1.1"><rect x="0" y="0" width="960" height="540" fill="#ffffff"></rect><defs><linearGradient id="grad1_0" x1="43.8%" y1="0%" x2="100%" y2="100%"><stop offset="14.444444444444446%" stop-color="#ffffff" stop-opacity="1"></stop><stop offset="85.55555555555554%" stop-color="#ffffff" stop-opacity="1"></stop></linearGradient></defs><defs><linearGradient id="grad2_0" x1="0%" y1="0%" x2="56.3%" y2="100%"><stop offset="14.444444444444446%" stop-color="#ffffff" stop-opacity="1"></stop><stop offset="85.55555555555554%" stop-color="#ffffff" stop-opacity="1"></stop></linearGradient></defs><g transform="translate(960, 0)"><path d="M0 243C-36.3 243.9 -72.6 244.8 -93 224.5C-113.4 204.2 -117.9 162.6 -139.3 139.3C-160.7 116 -198.9 110.9 -219 90.7C-239 70.5 -241 35.3 -243 0L0 0Z" fill="#19003e"></path></g><g transform="translate(0, 540)"><path d="M0 -243C31.7 -240.1 63.5 -237.3 93 -224.5C122.5 -211.7 149.8 -189.1 161.9 -161.9C174.1 -134.8 171 -103.1 182 -75.4C193 -47.7 218 -23.8 243 0L0 0Z" fill="#19003e"></path></g></svg>