<svg id="visual" viewBox="0 0 960 540" width="960" height="540" xmlns="http://www.w3.org/2000/svg" xmlns:xlink="http://www.w3.org/1999/xlink" version="1.1"><path d="M0 335L22.8 334C45.7 333 91.3 331 137 330.5C182.7 330 228.3 331 274 339.5C319.7 348 365.3 364 411.2 371C457 378 503 376 548.8 370.3C594.7 364.7 640.3 355.3 686 358C731.7 360.7 777.3 375.3 823 370.5C868.7 365.7 914.3 341.3 937.2 329.2L960 317L960 541L937.2 541C914.3 541 868.7 541 823 541C777.3 541 731.7 541 686 541C640.3 541 594.7 541 548.8 541C503 541 457 541 411.2 541C365.3 541 319.7 541 274 541C228.3 541 182.7 541 137 541C91.3 541 45.7 541 22.8 541L0 541Z" fill="#4c00be"></path><path d="M0 364L22.8 371.3C45.7 378.7 91.3 393.3 137 401.8C182.7 410.3 228.3 412.7 274 405.7C319.7 398.7 365.3 382.3 411.2 379.2C457 376 503 386 548.8 392C594.7 398 640.3 400 686 395.3C731.7 390.7 777.3 379.3 823 382.3C868.7 385.3 914.3 402.7 937.2 411.3L960 420L960 541L937.2 541C914.3 541 868.7 541 823 541C777.3 541 731.7 541 686 541C640.3 541 594.7 541 548.8 541C503 541 457 541 411.2 541C365.3 541 319.7 541 274 541C228.3 541 182.7 541 137 541C91.3 541 45.7 541 22.8 541L0 541Z" fill="#3f019c"></path><path d="M0 402L22.8 410C45.7 418 91.3 434 137 441.2C182.7 448.3 228.3 446.7 274 444.7C319.7 442.7 365.3 440.3 411.2 436.8C457 433.3 503 428.7 548.8 421.8C594.7 415 640.3 406 686 404.3C731.7 402.7 777.3 408.3 823 407.7C868.7 407 914.3 400 937.2 396.5L960 393L960 541L937.2 541C914.3 541 868.7 541 823 541C777.3 541 731.7 541 686 541C640.3 541 594.7 541 548.8 541C503 541 457 541 411.2 541C365.3 541 319.7 541 274 541C228.3 541 182.7 541 137 541C91.3 541 45.7 541 22.8 541L0 541Z" fill="#32027c"></path><path d="M0 448L22.8 448.5C45.7 449 91.3 450 137 454.7C182.7 459.3 228.3 467.7 274 465C319.7 462.3 365.3 448.7 411.2 443.2C457 437.7 503 440.3 548.8 445.5C594.7 450.7 640.3 458.3 686 458.5C731.7 458.7 777.3 451.3 823 454.3C868.7 457.3 914.3 470.7 937.2 477.3L960 484L960 541L937.2 541C914.3 541 868.7 541 823 541C777.3 541 731.7 541 686 541C640.3 541 594.7 541 548.8 541C503 541 457 541 411.2 541C365.3 541 319.7 541 274 541C228.3 541 182.7 541 137 541C91.3 541 45.7 541 22.8 541L0 541Z" fill="#25025e"></path><path d="M0 492L22.8 492.8C45.7 493.7 91.3 495.3 137 495C182.7 494.7 228.3 492.3 274 495C319.7 497.7 365.3 505.3 411.2 503.7C457 502 503 491 548.8 489C594.7 487 640.3 494 686 493C731.7 492 777.3 483 823 480.7C868.7 478.3 914.3 482.7 937.2 484.8L960 487L960 541L937.2 541C914.3 541 868.7 541 823 541C777.3 541 731.7 541 686 541C640.3 541 594.7 541 548.8 541C503 541 457 541 411.2 541C365.3 541 319.7 541 274 541C228.3 541 182.7 541 137 541C91.3 541 45.7 541 22.8 541L0 541Z" fill="#1a0041"></path></svg>