<svg xmlns="http://www.w3.org/2000/svg" version="1.1" xmlns:xlink="http://www.w3.org/1999/xlink" xmlns:svgjs="http://svgjs.com/svgjs" width="1440" height="700" preserveAspectRatio="none" viewBox="0 0 1440 700"><g mask="url(&quot;#SvgjsMask1024&quot;)" fill="none"><rect width="1440" height="700" x="0" y="0" fill="rgba(6, 2, 34, 0.93)"></rect><path d="M-53.26 513.94L-53.26 513.94" stroke="#132e65" stroke-width="1.5"></path><path d="M-53.26 513.94L74.55 555.29" stroke="#132e65" stroke-width="1.5"></path><path d="M-53.26 513.94L-93.3 660.32" stroke="#132e65" stroke-width="1.5"></path><path d="M-93.3 660.32L-93.3 660.32" stroke="#132e65" stroke-width="1.5"></path><path d="M-93.3 660.32L74.14 648.48" stroke="#132e65" stroke-width="1.5"></path><path d="M-110.8 843.4L-110.8 843.4" stroke="#132e65" stroke-width="1.5"></path><path d="M-110.8 843.4L-93.3 660.32" stroke="#132e65" stroke-width="1.5"></path><path d="M-110.8 843.4L111.61 853.43" stroke="#132e65" stroke-width="1.5"></path><path d="M74.55 555.29L74.55 555.29" stroke="#132e65" stroke-width="1.5"></path><path d="M74.55 555.29L74.14 648.48" stroke="#132e65" stroke-width="1.5"></path><path d="M74.55 555.29L237.69 554.64" stroke="#132e65" stroke-width="1.5"></path><path d="M74.55 555.29L228.04 658.75" stroke="#132e65" stroke-width="1.5"></path><path d="M74.14 648.48L74.14 648.48" stroke="#132e65" stroke-width="1.5"></path><path d="M74.14 648.48L228.04 658.75" stroke="#132e65" stroke-width="1.5"></path><path d="M74.14 648.48L-53.26 513.94" stroke="#132e65" stroke-width="1.5"></path><path d="M74.14 648.48L237.69 554.64" stroke="#132e65" stroke-width="1.5"></path><path d="M74.14 648.48L111.61 853.43" stroke="#132e65" stroke-width="1.5"></path><path d="M111.61 853.43L111.61 853.43" stroke="#132e65" stroke-width="1.5"></path><path d="M111.61 853.43L209.7 823.98" stroke="#132e65" stroke-width="1.5"></path><path d="M237.69 554.64L237.69 554.64" stroke="#132e65" stroke-width="1.5"></path><path d="M237.69 554.64L228.04 658.75" stroke="#132e65" stroke-width="1.5"></path><path d="M237.69 554.64L361.31 508.82" stroke="#132e65" stroke-width="1.5"></path><path d="M237.69 554.64L382.89 693.75" stroke="#132e65" stroke-width="1.5"></path><path d="M237.69 554.64L353.69 385.56" stroke="#132e65" stroke-width="1.5"></path><path d="M228.04 658.75L228.04 658.75" stroke="#132e65" stroke-width="1.5"></path><path d="M228.04 658.75L382.89 693.75" stroke="#132e65" stroke-width="1.5"></path><path d="M228.04 658.75L209.7 823.98" stroke="#132e65" stroke-width="1.5"></path><path d="M209.7 823.98L209.7 823.98" stroke="#132e65" stroke-width="1.5"></path><path d="M209.7 823.98L357.34 819.97" stroke="#132e65" stroke-width="1.5"></path><path d="M353.69 385.56L353.69 385.56" stroke="#132e65" stroke-width="1.5"></path><path d="M353.69 385.56L361.31 508.82" stroke="#132e65" stroke-width="1.5"></path><path d="M353.69 385.56L517.76 340.26" stroke="#132e65" stroke-width="1.5"></path><path d="M353.69 385.56L545.61 552.86" stroke="#132e65" stroke-width="1.5"></path><path d="M353.69 385.56L494.75 638.46" stroke="#132e65" stroke-width="1.5"></path><path d="M353.69 385.56L228.04 658.75" stroke="#132e65" stroke-width="1.5"></path><path d="M361.31 508.82L361.31 508.82" stroke="#132e65" stroke-width="1.5"></path><path d="M361.31 508.82L494.75 638.46" stroke="#132e65" stroke-width="1.5"></path><path d="M361.31 508.82L382.89 693.75" stroke="#132e65" stroke-width="1.5"></path><path d="M361.31 508.82L545.61 552.86" stroke="#132e65" stroke-width="1.5"></path><path d="M361.31 508.82L228.04 658.75" stroke="#132e65" stroke-width="1.5"></path><path d="M382.89 693.75L382.89 693.75" stroke="#132e65" stroke-width="1.5"></path><path d="M382.89 693.75L494.75 638.46" stroke="#132e65" stroke-width="1.5"></path><path d="M382.89 693.75L357.34 819.97" stroke="#132e65" stroke-width="1.5"></path><path d="M357.34 819.97L357.34 819.97" stroke="#132e65" stroke-width="1.5"></path><path d="M357.34 819.97L503.62 811.33" stroke="#132e65" stroke-width="1.5"></path><path d="M517.76 340.26L517.76 340.26" stroke="#132e65" stroke-width="1.5"></path><path d="M517.76 340.26L706.47 337.75" stroke="#132e65" stroke-width="1.5"></path><path d="M517.76 340.26L545.61 552.86" stroke="#132e65" stroke-width="1.5"></path><path d="M545.61 552.86L545.61 552.86" stroke="#132e65" stroke-width="1.5"></path><path d="M545.61 552.86L494.75 638.46" stroke="#132e65" stroke-width="1.5"></path><path d="M545.61 552.86L698.96 552.17" stroke="#132e65" stroke-width="1.5"></path><path d="M545.61 552.86L654.07 698.18" stroke="#132e65" stroke-width="1.5"></path><path d="M494.75 638.46L494.75 638.46" stroke="#132e65" stroke-width="1.5"></path><path d="M494.75 638.46L654.07 698.18" stroke="#132e65" stroke-width="1.5"></path><path d="M494.75 638.46L503.62 811.33" stroke="#132e65" stroke-width="1.5"></path><path d="M503.62 811.33L503.62 811.33" stroke="#132e65" stroke-width="1.5"></path><path d="M503.62 811.33L382.89 693.75" stroke="#132e65" stroke-width="1.5"></path><path d="M706.47 337.75L706.47 337.75" stroke="#132e65" stroke-width="1.5"></path><path d="M706.47 337.75L828.42 368.56" stroke="#132e65" stroke-width="1.5"></path><path d="M706.47 337.75L806.68 249.55" stroke="#132e65" stroke-width="1.5"></path><path d="M706.47 337.75L698.96 552.17" stroke="#132e65" stroke-width="1.5"></path><path d="M698.96 552.17L698.96 552.17" stroke="#132e65" stroke-width="1.5"></path><path d="M698.96 552.17L808.59 549.41" stroke="#132e65" stroke-width="1.5"></path><path d="M698.96 552.17L799.63 651.05" stroke="#132e65" stroke-width="1.5"></path><path d="M654.07 698.18L654.07 698.18" stroke="#132e65" stroke-width="1.5"></path><path d="M654.07 698.18L704.18 831.22" stroke="#132e65" stroke-width="1.5"></path><path d="M654.07 698.18L698.96 552.17" stroke="#132e65" stroke-width="1.5"></path><path d="M704.18 831.22L704.18 831.22" stroke="#132e65" stroke-width="1.5"></path><path d="M704.18 831.22L834.27 858.09" stroke="#132e65" stroke-width="1.5"></path><path d="M704.18 831.22L503.62 811.33" stroke="#132e65" stroke-width="1.5"></path><path d="M704.18 831.22L799.63 651.05" stroke="#132e65" stroke-width="1.5"></path><path d="M704.18 831.22L972.45 809.78" stroke="#132e65" stroke-width="1.5"></path><path d="M704.18 831.22L698.96 552.17" stroke="#132e65" stroke-width="1.5"></path><path d="M806.68 249.55L806.68 249.55" stroke="#132e65" stroke-width="1.5"></path><path d="M806.68 249.55L828.42 368.56" stroke="#132e65" stroke-width="1.5"></path><path d="M828.42 368.56L828.42 368.56" stroke="#132e65" stroke-width="1.5"></path><path d="M828.42 368.56L984.11 406.67" stroke="#132e65" stroke-width="1.5"></path><path d="M828.42 368.56L960.52 246.73" stroke="#132e65" stroke-width="1.5"></path><path d="M828.42 368.56L808.59 549.41" stroke="#132e65" stroke-width="1.5"></path><path d="M808.59 549.41L808.59 549.41" stroke="#132e65" stroke-width="1.5"></path><path d="M808.59 549.41L799.63 651.05" stroke="#132e65" stroke-width="1.5"></path><path d="M808.59 549.41L951.5 669.28" stroke="#132e65" stroke-width="1.5"></path><path d="M799.63 651.05L799.63 651.05" stroke="#132e65" stroke-width="1.5"></path><path d="M799.63 651.05L951.5 669.28" stroke="#132e65" stroke-width="1.5"></path><path d="M799.63 651.05L654.07 698.18" stroke="#132e65" stroke-width="1.5"></path><path d="M834.27 858.09L834.27 858.09" stroke="#132e65" stroke-width="1.5"></path><path d="M834.27 858.09L972.45 809.78" stroke="#132e65" stroke-width="1.5"></path><path d="M977.96 -63.68L977.96 -63.68" stroke="#132e65" stroke-width="1.5"></path><path d="M977.96 -63.68L1091.66 -64.28" stroke="#132e65" stroke-width="1.5"></path><path d="M977.96 -63.68L1006.52 48.74" stroke="#132e65" stroke-width="1.5"></path><path d="M1006.52 48.74L1006.52 48.74" stroke="#132e65" stroke-width="1.5"></path><path d="M1006.52 48.74L1091.66 -64.28" stroke="#132e65" stroke-width="1.5"></path><path d="M1006.52 48.74L1161.48 83.46" stroke="#132e65" stroke-width="1.5"></path><path d="M1006.52 48.74L960.52 246.73" stroke="#132e65" stroke-width="1.5"></path><path d="M1006.52 48.74L1253.01 46.8" stroke="#132e65" stroke-width="1.5"></path><path d="M960.52 246.73L960.52 246.73" stroke="#132e65" stroke-width="1.5"></path><path d="M960.52 246.73L806.68 249.55" stroke="#132e65" stroke-width="1.5"></path><path d="M960.52 246.73L984.11 406.67" stroke="#132e65" stroke-width="1.5"></path><path d="M984.11 406.67L984.11 406.67" stroke="#132e65" stroke-width="1.5"></path><path d="M984.11 406.67L1088.6 500.5" stroke="#132e65" stroke-width="1.5"></path><path d="M984.11 406.67L1148.2 398.6" stroke="#132e65" stroke-width="1.5"></path><path d="M984.11 406.67L808.59 549.41" stroke="#132e65" stroke-width="1.5"></path><path d="M984.11 406.67L1149.33 251.84" stroke="#132e65" stroke-width="1.5"></path><path d="M951.5 669.28L951.5 669.28" stroke="#132e65" stroke-width="1.5"></path><path d="M951.5 669.28L972.45 809.78" stroke="#132e65" stroke-width="1.5"></path><path d="M951.5 669.28L1096.7 666.7" stroke="#132e65" stroke-width="1.5"></path><path d="M972.45 809.78L972.45 809.78" stroke="#132e65" stroke-width="1.5"></path><path d="M972.45 809.78L1101.99 797.18" stroke="#132e65" stroke-width="1.5"></path><path d="M972.45 809.78L1096.7 666.7" stroke="#132e65" stroke-width="1.5"></path><path d="M1091.66 -64.28L1091.66 -64.28" stroke="#132e65" stroke-width="1.5"></path><path d="M1091.66 -64.28L1161.48 83.46" stroke="#132e65" stroke-width="1.5"></path><path d="M1091.66 -64.28L1284.21 -80.41" stroke="#132e65" stroke-width="1.5"></path><path d="M1091.66 -64.28L1253.01 46.8" stroke="#132e65" stroke-width="1.5"></path><path d="M1161.48 83.46L1161.48 83.46" stroke="#132e65" stroke-width="1.5"></path><path d="M1161.48 83.46L1253.01 46.8" stroke="#132e65" stroke-width="1.5"></path><path d="M1149.33 251.84L1149.33 251.84" stroke="#132e65" stroke-width="1.5"></path><path d="M1149.33 251.84L1148.2 398.6" stroke="#132e65" stroke-width="1.5"></path><path d="M1149.33 251.84L1298.88 222.28" stroke="#132e65" stroke-width="1.5"></path><path d="M1149.33 251.84L1161.48 83.46" stroke="#132e65" stroke-width="1.5"></path><path d="M1149.33 251.84L960.52 246.73" stroke="#132e65" stroke-width="1.5"></path><path d="M1149.33 251.84L1292.17 407.33" stroke="#132e65" stroke-width="1.5"></path><path d="M1148.2 398.6L1148.2 398.6" stroke="#132e65" stroke-width="1.5"></path><path d="M1148.2 398.6L1088.6 500.5" stroke="#132e65" stroke-width="1.5"></path><path d="M1148.2 398.6L1292.17 407.33" stroke="#132e65" stroke-width="1.5"></path><path d="M1148.2 398.6L1241.51 532.55" stroke="#132e65" stroke-width="1.5"></path><path d="M1088.6 500.5L1088.6 500.5" stroke="#132e65" stroke-width="1.5"></path><path d="M1096.7 666.7L1096.7 666.7" stroke="#132e65" stroke-width="1.5"></path><path d="M1096.7 666.7L1101.99 797.18" stroke="#132e65" stroke-width="1.5"></path><path d="M1101.99 797.18L1101.99 797.18" stroke="#132e65" stroke-width="1.5"></path><path d="M1101.99 797.18L1249.46 831.15" stroke="#132e65" stroke-width="1.5"></path><path d="M1101.99 797.18L951.5 669.28" stroke="#132e65" stroke-width="1.5"></path><path d="M1101.99 797.18L1294.79 681.03" stroke="#132e65" stroke-width="1.5"></path><path d="M1284.21 -80.41L1284.21 -80.41" stroke="#132e65" stroke-width="1.5"></path><path d="M1284.21 -80.41L1253.01 46.8" stroke="#132e65" stroke-width="1.5"></path><path d="M1253.01 46.8L1253.01 46.8" stroke="#132e65" stroke-width="1.5"></path><path d="M1253.01 46.8L1403.28 103.34" stroke="#132e65" stroke-width="1.5"></path><path d="M1253.01 46.8L1298.88 222.28" stroke="#132e65" stroke-width="1.5"></path><path d="M1298.88 222.28L1298.88 222.28" stroke="#132e65" stroke-width="1.5"></path><path d="M1298.88 222.28L1403.28 103.34" stroke="#132e65" stroke-width="1.5"></path><path d="M1298.88 222.28L1461.48 198.55" stroke="#132e65" stroke-width="1.5"></path><path d="M1298.88 222.28L1292.17 407.33" stroke="#132e65" stroke-width="1.5"></path><path d="M1298.88 222.28L1161.48 83.46" stroke="#132e65" stroke-width="1.5"></path><path d="M1292.17 407.33L1292.17 407.33" stroke="#132e65" stroke-width="1.5"></path><path d="M1292.17 407.33L1241.51 532.55" stroke="#132e65" stroke-width="1.5"></path><path d="M1292.17 407.33L1455.47 363.21" stroke="#132e65" stroke-width="1.5"></path><path d="M1292.17 407.33L1441.99 517.55" stroke="#132e65" stroke-width="1.5"></path><path d="M1241.51 532.55L1241.51 532.55" stroke="#132e65" stroke-width="1.5"></path><path d="M1241.51 532.55L1088.6 500.5" stroke="#132e65" stroke-width="1.5"></path><path d="M1241.51 532.55L1294.79 681.03" stroke="#132e65" stroke-width="1.5"></path><path d="M1241.51 532.55L1096.7 666.7" stroke="#132e65" stroke-width="1.5"></path><path d="M1294.79 681.03L1294.79 681.03" stroke="#132e65" stroke-width="1.5"></path><path d="M1294.79 681.03L1396.32 701.06" stroke="#132e65" stroke-width="1.5"></path><path d="M1294.79 681.03L1249.46 831.15" stroke="#132e65" stroke-width="1.5"></path><path d="M1294.79 681.03L1409.99 796.25" stroke="#132e65" stroke-width="1.5"></path><path d="M1294.79 681.03L1096.7 666.7" stroke="#132e65" stroke-width="1.5"></path><path d="M1294.79 681.03L1441.99 517.55" stroke="#132e65" stroke-width="1.5"></path><path d="M1249.46 831.15L1249.46 831.15" stroke="#132e65" stroke-width="1.5"></path><path d="M1249.46 831.15L1409.99 796.25" stroke="#132e65" stroke-width="1.5"></path><path d="M1433.86 -85.49L1433.86 -85.49" stroke="#132e65" stroke-width="1.5"></path><path d="M1433.86 -85.49L1284.21 -80.41" stroke="#132e65" stroke-width="1.5"></path><path d="M1433.86 -85.49L1591.05 -73.89" stroke="#132e65" stroke-width="1.5"></path><path d="M1433.86 -85.49L1561.85 49.15" stroke="#132e65" stroke-width="1.5"></path><path d="M1433.86 -85.49L1403.28 103.34" stroke="#132e65" stroke-width="1.5"></path><path d="M1403.28 103.34L1403.28 103.34" stroke="#132e65" stroke-width="1.5"></path><path d="M1403.28 103.34L1461.48 198.55" stroke="#132e65" stroke-width="1.5"></path><path d="M1403.28 103.34L1561.85 49.15" stroke="#132e65" stroke-width="1.5"></path><path d="M1461.48 198.55L1461.48 198.55" stroke="#132e65" stroke-width="1.5"></path><path d="M1455.47 363.21L1455.47 363.21" stroke="#132e65" stroke-width="1.5"></path><path d="M1455.47 363.21L1592.29 409.72" stroke="#132e65" stroke-width="1.5"></path><path d="M1455.47 363.21L1441.99 517.55" stroke="#132e65" stroke-width="1.5"></path><path d="M1455.47 363.21L1461.48 198.55" stroke="#132e65" stroke-width="1.5"></path><path d="M1441.99 517.55L1441.99 517.55" stroke="#132e65" stroke-width="1.5"></path><path d="M1441.99 517.55L1546.51 532.76" stroke="#132e65" stroke-width="1.5"></path><path d="M1441.99 517.55L1592.29 409.72" stroke="#132e65" stroke-width="1.5"></path><path d="M1396.32 701.06L1396.32 701.06" stroke="#132e65" stroke-width="1.5"></path><path d="M1396.32 701.06L1409.99 796.25" stroke="#132e65" stroke-width="1.5"></path><path d="M1409.99 796.25L1409.99 796.25" stroke="#132e65" stroke-width="1.5"></path><path d="M1409.99 796.25L1557.34 812.1" stroke="#132e65" stroke-width="1.5"></path><path d="M1591.05 -73.89L1591.05 -73.89" stroke="#132e65" stroke-width="1.5"></path><path d="M1591.05 -73.89L1561.85 49.15" stroke="#132e65" stroke-width="1.5"></path><path d="M1591.05 -73.89L1403.28 103.34" stroke="#132e65" stroke-width="1.5"></path><path d="M1591.05 -73.89L1589.4 205.48" stroke="#132e65" stroke-width="1.5"></path><path d="M1561.85 49.15L1561.85 49.15" stroke="#132e65" stroke-width="1.5"></path><path d="M1561.85 49.15L1589.4 205.48" stroke="#132e65" stroke-width="1.5"></path><path d="M1589.4 205.48L1589.4 205.48" stroke="#132e65" stroke-width="1.5"></path><path d="M1589.4 205.48L1461.48 198.55" stroke="#132e65" stroke-width="1.5"></path><path d="M1589.4 205.48L1592.29 409.72" stroke="#132e65" stroke-width="1.5"></path><path d="M1589.4 205.48L1455.47 363.21" stroke="#132e65" stroke-width="1.5"></path><path d="M1589.4 205.48L1403.28 103.34" stroke="#132e65" stroke-width="1.5"></path><path d="M1592.29 409.72L1592.29 409.72" stroke="#132e65" stroke-width="1.5"></path><path d="M1592.29 409.72L1546.51 532.76" stroke="#132e65" stroke-width="1.5"></path><path d="M1546.51 532.76L1546.51 532.76" stroke="#132e65" stroke-width="1.5"></path><path d="M1546.51 532.76L1571.09 681.52" stroke="#132e65" stroke-width="1.5"></path><path d="M1546.51 532.76L1455.47 363.21" stroke="#132e65" stroke-width="1.5"></path><path d="M1546.51 532.76L1396.32 701.06" stroke="#132e65" stroke-width="1.5"></path><path d="M1546.51 532.76L1557.34 812.1" stroke="#132e65" stroke-width="1.5"></path><path d="M1571.09 681.52L1571.09 681.52" stroke="#132e65" stroke-width="1.5"></path><path d="M1571.09 681.52L1557.34 812.1" stroke="#132e65" stroke-width="1.5"></path><path d="M1571.09 681.52L1396.32 701.06" stroke="#132e65" stroke-width="1.5"></path><path d="M1571.09 681.52L1409.99 796.25" stroke="#132e65" stroke-width="1.5"></path><path d="M1571.09 681.52L1441.99 517.55" stroke="#132e65" stroke-width="1.5"></path><path d="M1571.09 681.52L1592.29 409.72" stroke="#132e65" stroke-width="1.5"></path><path d="M1557.34 812.1L1557.34 812.1" stroke="#132e65" stroke-width="1.5"></path><path d="M1557.34 812.1L1396.32 701.06" stroke="#132e65" stroke-width="1.5"></path><path d="M1557.34 812.1L1294.79 681.03" stroke="#132e65" stroke-width="1.5"></path><circle r="5" cx="-53.26" cy="513.94" fill="#132e65"></circle><circle r="5" cx="-93.3" cy="660.32" fill="#132e65"></circle><circle r="5" cx="-110.8" cy="843.4" fill="#132e65"></circle><circle r="5" cx="74.55" cy="555.29" fill="#132e65"></circle><circle r="5" cx="74.14" cy="648.48" fill="#132e65"></circle><circle r="5" cx="111.61" cy="853.43" fill="#132e65"></circle><circle r="5" cx="237.69" cy="554.64" fill="#132e65"></circle><circle r="5" cx="228.04" cy="658.75" fill="#132e65"></circle><circle r="5" cx="209.7" cy="823.98" fill="#132e65"></circle><circle r="5" cx="353.69" cy="385.56" fill="#132e65"></circle><circle r="5" cx="361.31" cy="508.82" fill="#132e65"></circle><circle r="5" cx="382.89" cy="693.75" fill="#132e65"></circle><circle r="5" cx="357.34" cy="819.97" fill="#132e65"></circle><circle r="5" cx="517.76" cy="340.26" fill="#132e65"></circle><circle r="5" cx="545.61" cy="552.86" fill="#132e65"></circle><circle r="5" cx="494.75" cy="638.46" fill="#132e65"></circle><circle r="5" cx="503.62" cy="811.33" fill="#132e65"></circle><circle r="5" cx="706.47" cy="337.75" fill="#132e65"></circle><circle r="5" cx="698.96" cy="552.17" fill="#132e65"></circle><circle r="5" cx="654.07" cy="698.18" fill="#132e65"></circle><circle r="5" cx="704.18" cy="831.22" fill="#132e65"></circle><circle r="5" cx="806.68" cy="249.55" fill="#132e65"></circle><circle r="5" cx="828.42" cy="368.56" fill="#132e65"></circle><circle r="5" cx="808.59" cy="549.41" fill="#132e65"></circle><circle r="5" cx="799.63" cy="651.05" fill="#132e65"></circle><circle r="5" cx="834.27" cy="858.09" fill="#132e65"></circle><circle r="5" cx="977.96" cy="-63.68" fill="#132e65"></circle><circle r="5" cx="1006.52" cy="48.74" fill="#132e65"></circle><circle r="5" cx="960.52" cy="246.73" fill="#132e65"></circle><circle r="5" cx="984.11" cy="406.67" fill="#132e65"></circle><circle r="5" cx="951.5" cy="669.28" fill="#132e65"></circle><circle r="5" cx="972.45" cy="809.78" fill="#132e65"></circle><circle r="5" cx="1091.66" cy="-64.28" fill="#132e65"></circle><circle r="5" cx="1161.48" cy="83.46" fill="#132e65"></circle><circle r="5" cx="1149.33" cy="251.84" fill="#132e65"></circle><circle r="5" cx="1148.2" cy="398.6" fill="#132e65"></circle><circle r="5" cx="1088.6" cy="500.5" fill="#132e65"></circle><circle r="5" cx="1096.7" cy="666.7" fill="#132e65"></circle><circle r="5" cx="1101.99" cy="797.18" fill="#132e65"></circle><circle r="5" cx="1284.21" cy="-80.41" fill="#132e65"></circle><circle r="5" cx="1253.01" cy="46.8" fill="#132e65"></circle><circle r="5" cx="1298.88" cy="222.28" fill="#132e65"></circle><circle r="5" cx="1292.17" cy="407.33" fill="#132e65"></circle><circle r="5" cx="1241.51" cy="532.55" fill="#132e65"></circle><circle r="5" cx="1294.79" cy="681.03" fill="#132e65"></circle><circle r="5" cx="1249.46" cy="831.15" fill="#132e65"></circle><circle r="5" cx="1433.86" cy="-85.49" fill="#132e65"></circle><circle r="5" cx="1403.28" cy="103.34" fill="#132e65"></circle><circle r="5" cx="1461.48" cy="198.55" fill="#132e65"></circle><circle r="5" cx="1455.47" cy="363.21" fill="#132e65"></circle><circle r="5" cx="1441.99" cy="517.55" fill="#132e65"></circle><circle r="5" cx="1396.32" cy="701.06" fill="#132e65"></circle><circle r="5" cx="1409.99" cy="796.25" fill="#132e65"></circle><circle r="5" cx="1591.05" cy="-73.89" fill="#132e65"></circle><circle r="5" cx="1561.85" cy="49.15" fill="#132e65"></circle><circle r="5" cx="1589.4" cy="205.48" fill="#132e65"></circle><circle r="5" cx="1592.29" cy="409.72" fill="#132e65"></circle><circle r="5" cx="1546.51" cy="532.76" fill="#132e65"></circle><circle r="5" cx="1571.09" cy="681.52" fill="#132e65"></circle><circle r="5" cx="1557.34" cy="812.1" fill="#132e65"></circle><path d="M-102.82 787.54L-102.82 787.54" stroke="hsl(229.39999999999998, 83.5%, 58.9%)" stroke-width="1.5"></path><path d="M-102.82 787.54L-84.77 640.25" stroke="hsl(229.39999999999998, 83.5%, 58.9%)" stroke-width="1.5"></path><path d="M-102.82 787.54L45.41 809.39" stroke="hsl(229.39999999999998, 83.5%, 58.9%)" stroke-width="1.5"></path><path d="M-102.82 787.54L52.54 692.33" stroke="hsl(229.39999999999998, 83.5%, 58.9%)" stroke-width="1.5"></path><path d="M843.54 637.68L843.54 637.68" stroke="hsl(229.39999999999998, 83.5%, 58.9%)" stroke-width="1.5"></path><path d="M843.54 637.68L951.77 688.39" stroke="hsl(229.39999999999998, 83.5%, 58.9%)" stroke-width="1.5"></path><path d="M843.54 637.68L837.02 503.28" stroke="hsl(229.39999999999998, 83.5%, 58.9%)" stroke-width="1.5"></path><path d="M951.77 688.39L951.77 688.39" stroke="hsl(229.39999999999998, 83.5%, 58.9%)" stroke-width="1.5"></path><path d="M951.77 688.39L954.31 829.52" stroke="hsl(229.39999999999998, 83.5%, 58.9%)" stroke-width="1.5"></path><path d="M951.77 688.39L951.06 542.79" stroke="hsl(229.39999999999998, 83.5%, 58.9%)" stroke-width="1.5"></path><path d="M951.77 688.39L1128.26 643.05" stroke="hsl(229.39999999999998, 83.5%, 58.9%)" stroke-width="1.5"></path><path d="M951.77 688.39L804.38 809.12" stroke="hsl(229.39999999999998, 83.5%, 58.9%)" stroke-width="1.5"></path><path d="M1096.09 540.18L1096.09 540.18" stroke="hsl(229.39999999999998, 83.5%, 58.9%)" stroke-width="1.5"></path><path d="M1096.09 540.18L1128.26 643.05" stroke="hsl(229.39999999999998, 83.5%, 58.9%)" stroke-width="1.5"></path><path d="M1096.09 540.18L1140.57 408.8" stroke="hsl(229.39999999999998, 83.5%, 58.9%)" stroke-width="1.5"></path><path d="M1096.09 540.18L951.06 542.79" stroke="hsl(229.39999999999998, 83.5%, 58.9%)" stroke-width="1.5"></path><path d="M1275.09 -59.39L1275.09 -59.39" stroke="hsl(229.39999999999998, 83.5%, 58.9%)" stroke-width="1.5"></path><path d="M1275.09 -59.39L1152.11 -39.93" stroke="hsl(229.39999999999998, 83.5%, 58.9%)" stroke-width="1.5"></path><path d="M1275.09 -59.39L1255.35 74.62" stroke="hsl(229.39999999999998, 83.5%, 58.9%)" stroke-width="1.5"></path><path d="M1255.35 74.62L1255.35 74.62" stroke="hsl(229.39999999999998, 83.5%, 58.9%)" stroke-width="1.5"></path><path d="M1255.35 74.62L1152.11 -39.93" stroke="hsl(229.39999999999998, 83.5%, 58.9%)" stroke-width="1.5"></path><path d="M1255.35 74.62L1413.57 47.85" stroke="hsl(229.39999999999998, 83.5%, 58.9%)" stroke-width="1.5"></path><path d="M1255.35 74.62L1273.74 242.88" stroke="hsl(229.39999999999998, 83.5%, 58.9%)" stroke-width="1.5"></path><path d="M1406.85 259.13L1406.85 259.13" stroke="hsl(229.39999999999998, 83.5%, 58.9%)" stroke-width="1.5"></path><path d="M1406.85 259.13L1412.93 386.17" stroke="hsl(229.39999999999998, 83.5%, 58.9%)" stroke-width="1.5"></path><path d="M1406.85 259.13L1538 259.39" stroke="hsl(229.39999999999998, 83.5%, 58.9%)" stroke-width="1.5"></path><path d="M1406.85 259.13L1273.74 242.88" stroke="hsl(229.39999999999998, 83.5%, 58.9%)" stroke-width="1.5"></path><path d="M1567.81 838.41L1567.81 838.41" stroke="hsl(229.39999999999998, 83.5%, 58.9%)" stroke-width="1.5"></path><path d="M1567.81 838.41L1420.76 806.26" stroke="hsl(229.39999999999998, 83.5%, 58.9%)" stroke-width="1.5"></path><path d="M1567.81 838.41L1390.92 705.22" stroke="hsl(229.39999999999998, 83.5%, 58.9%)" stroke-width="1.5"></path><path d="M1567.81 838.41L1302.98 841.35" stroke="hsl(229.39999999999998, 83.5%, 58.9%)" stroke-width="1.5"></path><path d="M1567.81 838.41L1558.05 503.78" stroke="hsl(229.39999999999998, 83.5%, 58.9%)" stroke-width="1.5"></path><path d="M1567.81 838.41L1271.16 658.88" stroke="hsl(229.39999999999998, 83.5%, 58.9%)" stroke-width="1.5"></path><path d="M1567.81 838.41L1389.83 497.84" stroke="hsl(229.39999999999998, 83.5%, 58.9%)" stroke-width="1.5"></path><path d="M-84.77 640.25L-84.77 640.25" stroke="hsl(229.39999999999998, 83.5%, 58.9%)" stroke-width="1.5"></path><path d="M-84.77 640.25L52.54 692.33" stroke="hsl(229.39999999999998, 83.5%, 58.9%)" stroke-width="1.5"></path><path d="M52.54 692.33L52.54 692.33" stroke="hsl(229.39999999999998, 83.5%, 58.9%)" stroke-width="1.5"></path><path d="M52.54 692.33L45.41 809.39" stroke="hsl(229.39999999999998, 83.5%, 58.9%)" stroke-width="1.5"></path><path d="M45.41 809.39L45.41 809.39" stroke="hsl(229.39999999999998, 83.5%, 58.9%)" stroke-width="1.5"></path><path d="M45.41 809.39L236.84 853.92" stroke="hsl(229.39999999999998, 83.5%, 58.9%)" stroke-width="1.5"></path><path d="M239.42 710.4L239.42 710.4" stroke="hsl(229.39999999999998, 83.5%, 58.9%)" stroke-width="1.5"></path><path d="M239.42 710.4L371.54 663.3" stroke="hsl(229.39999999999998, 83.5%, 58.9%)" stroke-width="1.5"></path><path d="M239.42 710.4L236.84 853.92" stroke="hsl(229.39999999999998, 83.5%, 58.9%)" stroke-width="1.5"></path><path d="M236.84 853.92L236.84 853.92" stroke="hsl(229.39999999999998, 83.5%, 58.9%)" stroke-width="1.5"></path><path d="M236.84 853.92L367.11 817.14" stroke="hsl(229.39999999999998, 83.5%, 58.9%)" stroke-width="1.5"></path><path d="M351.12 533.81L351.12 533.81" stroke="hsl(229.39999999999998, 83.5%, 58.9%)" stroke-width="1.5"></path><path d="M351.12 533.81L371.54 663.3" stroke="hsl(229.39999999999998, 83.5%, 58.9%)" stroke-width="1.5"></path><path d="M351.12 533.81L522.48 526.3" stroke="hsl(229.39999999999998, 83.5%, 58.9%)" stroke-width="1.5"></path><path d="M351.12 533.81L494.03 683.86" stroke="hsl(229.39999999999998, 83.5%, 58.9%)" stroke-width="1.5"></path><path d="M371.54 663.3L371.54 663.3" stroke="hsl(229.39999999999998, 83.5%, 58.9%)" stroke-width="1.5"></path><path d="M371.54 663.3L494.03 683.86" stroke="hsl(229.39999999999998, 83.5%, 58.9%)" stroke-width="1.5"></path><path d="M371.54 663.3L367.11 817.14" stroke="hsl(229.39999999999998, 83.5%, 58.9%)" stroke-width="1.5"></path><path d="M371.54 663.3L515.06 802.81" stroke="hsl(229.39999999999998, 83.5%, 58.9%)" stroke-width="1.5"></path><path d="M367.11 817.14L367.11 817.14" stroke="hsl(229.39999999999998, 83.5%, 58.9%)" stroke-width="1.5"></path><path d="M367.11 817.14L515.06 802.81" stroke="hsl(229.39999999999998, 83.5%, 58.9%)" stroke-width="1.5"></path><path d="M522.48 526.3L522.48 526.3" stroke="hsl(229.39999999999998, 83.5%, 58.9%)" stroke-width="1.5"></path><path d="M522.48 526.3L649.79 506.2" stroke="hsl(229.39999999999998, 83.5%, 58.9%)" stroke-width="1.5"></path><path d="M522.48 526.3L494.03 683.86" stroke="hsl(229.39999999999998, 83.5%, 58.9%)" stroke-width="1.5"></path><path d="M522.48 526.3L371.54 663.3" stroke="hsl(229.39999999999998, 83.5%, 58.9%)" stroke-width="1.5"></path><path d="M522.48 526.3L658.51 712.4" stroke="hsl(229.39999999999998, 83.5%, 58.9%)" stroke-width="1.5"></path><path d="M522.48 526.3L515.06 802.81" stroke="hsl(229.39999999999998, 83.5%, 58.9%)" stroke-width="1.5"></path><path d="M494.03 683.86L494.03 683.86" stroke="hsl(229.39999999999998, 83.5%, 58.9%)" stroke-width="1.5"></path><path d="M494.03 683.86L515.06 802.81" stroke="hsl(229.39999999999998, 83.5%, 58.9%)" stroke-width="1.5"></path><path d="M515.06 802.81L515.06 802.81" stroke="hsl(229.39999999999998, 83.5%, 58.9%)" stroke-width="1.5"></path><path d="M515.06 802.81L676.64 836.26" stroke="hsl(229.39999999999998, 83.5%, 58.9%)" stroke-width="1.5"></path><path d="M649.79 506.2L649.79 506.2" stroke="hsl(229.39999999999998, 83.5%, 58.9%)" stroke-width="1.5"></path><path d="M649.79 506.2L837.02 503.28" stroke="hsl(229.39999999999998, 83.5%, 58.9%)" stroke-width="1.5"></path><path d="M649.79 506.2L826.96 403.41" stroke="hsl(229.39999999999998, 83.5%, 58.9%)" stroke-width="1.5"></path><path d="M649.79 506.2L658.51 712.4" stroke="hsl(229.39999999999998, 83.5%, 58.9%)" stroke-width="1.5"></path><path d="M649.79 506.2L843.54 637.68" stroke="hsl(229.39999999999998, 83.5%, 58.9%)" stroke-width="1.5"></path><path d="M649.79 506.2L494.03 683.86" stroke="hsl(229.39999999999998, 83.5%, 58.9%)" stroke-width="1.5"></path><path d="M658.51 712.4L658.51 712.4" stroke="hsl(229.39999999999998, 83.5%, 58.9%)" stroke-width="1.5"></path><path d="M658.51 712.4L676.64 836.26" stroke="hsl(229.39999999999998, 83.5%, 58.9%)" stroke-width="1.5"></path><path d="M658.51 712.4L494.03 683.86" stroke="hsl(229.39999999999998, 83.5%, 58.9%)" stroke-width="1.5"></path><path d="M676.64 836.26L676.64 836.26" stroke="hsl(229.39999999999998, 83.5%, 58.9%)" stroke-width="1.5"></path><path d="M676.64 836.26L804.38 809.12" stroke="hsl(229.39999999999998, 83.5%, 58.9%)" stroke-width="1.5"></path><path d="M676.64 836.26L494.03 683.86" stroke="hsl(229.39999999999998, 83.5%, 58.9%)" stroke-width="1.5"></path><path d="M826.96 403.41L826.96 403.41" stroke="hsl(229.39999999999998, 83.5%, 58.9%)" stroke-width="1.5"></path><path d="M826.96 403.41L837.02 503.28" stroke="hsl(229.39999999999998, 83.5%, 58.9%)" stroke-width="1.5"></path><path d="M826.96 403.41L951.06 394.17" stroke="hsl(229.39999999999998, 83.5%, 58.9%)" stroke-width="1.5"></path><path d="M826.96 403.41L951.06 542.79" stroke="hsl(229.39999999999998, 83.5%, 58.9%)" stroke-width="1.5"></path><path d="M837.02 503.28L837.02 503.28" stroke="hsl(229.39999999999998, 83.5%, 58.9%)" stroke-width="1.5"></path><path d="M837.02 503.28L951.06 542.79" stroke="hsl(229.39999999999998, 83.5%, 58.9%)" stroke-width="1.5"></path><path d="M837.02 503.28L951.06 394.17" stroke="hsl(229.39999999999998, 83.5%, 58.9%)" stroke-width="1.5"></path><path d="M804.38 809.12L804.38 809.12" stroke="hsl(229.39999999999998, 83.5%, 58.9%)" stroke-width="1.5"></path><path d="M804.38 809.12L954.31 829.52" stroke="hsl(229.39999999999998, 83.5%, 58.9%)" stroke-width="1.5"></path><path d="M804.38 809.12L658.51 712.4" stroke="hsl(229.39999999999998, 83.5%, 58.9%)" stroke-width="1.5"></path><path d="M804.38 809.12L843.54 637.68" stroke="hsl(229.39999999999998, 83.5%, 58.9%)" stroke-width="1.5"></path><path d="M951.06 394.17L951.06 394.17" stroke="hsl(229.39999999999998, 83.5%, 58.9%)" stroke-width="1.5"></path><path d="M951.06 394.17L951.06 542.79" stroke="hsl(229.39999999999998, 83.5%, 58.9%)" stroke-width="1.5"></path><path d="M951.06 542.79L951.06 542.79" stroke="hsl(229.39999999999998, 83.5%, 58.9%)" stroke-width="1.5"></path><path d="M954.31 829.52L954.31 829.52" stroke="hsl(229.39999999999998, 83.5%, 58.9%)" stroke-width="1.5"></path><path d="M1152.11 -39.93L1152.11 -39.93" stroke="hsl(229.39999999999998, 83.5%, 58.9%)" stroke-width="1.5"></path><path d="M1140.57 408.8L1140.57 408.8" stroke="hsl(229.39999999999998, 83.5%, 58.9%)" stroke-width="1.5"></path><path d="M1140.57 408.8L1257 369.89" stroke="hsl(229.39999999999998, 83.5%, 58.9%)" stroke-width="1.5"></path><path d="M1128.26 643.05L1128.26 643.05" stroke="hsl(229.39999999999998, 83.5%, 58.9%)" stroke-width="1.5"></path><path d="M1128.26 643.05L1271.16 658.88" stroke="hsl(229.39999999999998, 83.5%, 58.9%)" stroke-width="1.5"></path><path d="M1128.26 643.05L1254.93 539.69" stroke="hsl(229.39999999999998, 83.5%, 58.9%)" stroke-width="1.5"></path><path d="M1128.26 643.05L951.06 542.79" stroke="hsl(229.39999999999998, 83.5%, 58.9%)" stroke-width="1.5"></path><path d="M1128.26 643.05L1137.42 846.64" stroke="hsl(229.39999999999998, 83.5%, 58.9%)" stroke-width="1.5"></path><path d="M1137.42 846.64L1137.42 846.64" stroke="hsl(229.39999999999998, 83.5%, 58.9%)" stroke-width="1.5"></path><path d="M1137.42 846.64L1302.98 841.35" stroke="hsl(229.39999999999998, 83.5%, 58.9%)" stroke-width="1.5"></path><path d="M1137.42 846.64L954.31 829.52" stroke="hsl(229.39999999999998, 83.5%, 58.9%)" stroke-width="1.5"></path><path d="M1273.74 242.88L1273.74 242.88" stroke="hsl(229.39999999999998, 83.5%, 58.9%)" stroke-width="1.5"></path><path d="M1273.74 242.88L1257 369.89" stroke="hsl(229.39999999999998, 83.5%, 58.9%)" stroke-width="1.5"></path><path d="M1257 369.89L1257 369.89" stroke="hsl(229.39999999999998, 83.5%, 58.9%)" stroke-width="1.5"></path><path d="M1254.93 539.69L1254.93 539.69" stroke="hsl(229.39999999999998, 83.5%, 58.9%)" stroke-width="1.5"></path><path d="M1254.93 539.69L1271.16 658.88" stroke="hsl(229.39999999999998, 83.5%, 58.9%)" stroke-width="1.5"></path><path d="M1254.93 539.69L1389.83 497.84" stroke="hsl(229.39999999999998, 83.5%, 58.9%)" stroke-width="1.5"></path><path d="M1254.93 539.69L1096.09 540.18" stroke="hsl(229.39999999999998, 83.5%, 58.9%)" stroke-width="1.5"></path><path d="M1271.16 658.88L1271.16 658.88" stroke="hsl(229.39999999999998, 83.5%, 58.9%)" stroke-width="1.5"></path><path d="M1271.16 658.88L1390.92 705.22" stroke="hsl(229.39999999999998, 83.5%, 58.9%)" stroke-width="1.5"></path><path d="M1271.16 658.88L1302.98 841.35" stroke="hsl(229.39999999999998, 83.5%, 58.9%)" stroke-width="1.5"></path><path d="M1271.16 658.88L1389.83 497.84" stroke="hsl(229.39999999999998, 83.5%, 58.9%)" stroke-width="1.5"></path><path d="M1302.98 841.35L1302.98 841.35" stroke="hsl(229.39999999999998, 83.5%, 58.9%)" stroke-width="1.5"></path><path d="M1302.98 841.35L1420.76 806.26" stroke="hsl(229.39999999999998, 83.5%, 58.9%)" stroke-width="1.5"></path><path d="M1302.98 841.35L1390.92 705.22" stroke="hsl(229.39999999999998, 83.5%, 58.9%)" stroke-width="1.5"></path><path d="M1422.02 -97.35L1422.02 -97.35" stroke="hsl(229.39999999999998, 83.5%, 58.9%)" stroke-width="1.5"></path><path d="M1422.02 -97.35L1413.57 47.85" stroke="hsl(229.39999999999998, 83.5%, 58.9%)" stroke-width="1.5"></path><path d="M1422.02 -97.35L1275.09 -59.39" stroke="hsl(229.39999999999998, 83.5%, 58.9%)" stroke-width="1.5"></path><path d="M1422.02 -97.35L1601.03 -96.19" stroke="hsl(229.39999999999998, 83.5%, 58.9%)" stroke-width="1.5"></path><path d="M1422.02 -97.35L1255.35 74.62" stroke="hsl(229.39999999999998, 83.5%, 58.9%)" stroke-width="1.5"></path><path d="M1413.57 47.85L1413.57 47.85" stroke="hsl(229.39999999999998, 83.5%, 58.9%)" stroke-width="1.5"></path><path d="M1413.57 47.85L1275.09 -59.39" stroke="hsl(229.39999999999998, 83.5%, 58.9%)" stroke-width="1.5"></path><path d="M1413.57 47.85L1406.85 259.13" stroke="hsl(229.39999999999998, 83.5%, 58.9%)" stroke-width="1.5"></path><path d="M1413.57 47.85L1601.03 -96.19" stroke="hsl(229.39999999999998, 83.5%, 58.9%)" stroke-width="1.5"></path><path d="M1412.93 386.17L1412.93 386.17" stroke="hsl(229.39999999999998, 83.5%, 58.9%)" stroke-width="1.5"></path><path d="M1412.93 386.17L1389.83 497.84" stroke="hsl(229.39999999999998, 83.5%, 58.9%)" stroke-width="1.5"></path><path d="M1389.83 497.84L1389.83 497.84" stroke="hsl(229.39999999999998, 83.5%, 58.9%)" stroke-width="1.5"></path><path d="M1389.83 497.84L1558.05 503.78" stroke="hsl(229.39999999999998, 83.5%, 58.9%)" stroke-width="1.5"></path><path d="M1389.83 497.84L1257 369.89" stroke="hsl(229.39999999999998, 83.5%, 58.9%)" stroke-width="1.5"></path><path d="M1390.92 705.22L1390.92 705.22" stroke="hsl(229.39999999999998, 83.5%, 58.9%)" stroke-width="1.5"></path><path d="M1390.92 705.22L1420.76 806.26" stroke="hsl(229.39999999999998, 83.5%, 58.9%)" stroke-width="1.5"></path><path d="M1390.92 705.22L1389.83 497.84" stroke="hsl(229.39999999999998, 83.5%, 58.9%)" stroke-width="1.5"></path><path d="M1390.92 705.22L1254.93 539.69" stroke="hsl(229.39999999999998, 83.5%, 58.9%)" stroke-width="1.5"></path><path d="M1420.76 806.26L1420.76 806.26" stroke="hsl(229.39999999999998, 83.5%, 58.9%)" stroke-width="1.5"></path><path d="M1420.76 806.26L1271.16 658.88" stroke="hsl(229.39999999999998, 83.5%, 58.9%)" stroke-width="1.5"></path><path d="M1420.76 806.26L1137.42 846.64" stroke="hsl(229.39999999999998, 83.5%, 58.9%)" stroke-width="1.5"></path><path d="M1420.76 806.26L1389.83 497.84" stroke="hsl(229.39999999999998, 83.5%, 58.9%)" stroke-width="1.5"></path><path d="M1601.03 -96.19L1601.03 -96.19" stroke="hsl(229.39999999999998, 83.5%, 58.9%)" stroke-width="1.5"></path><path d="M1601.03 -96.19L1275.09 -59.39" stroke="hsl(229.39999999999998, 83.5%, 58.9%)" stroke-width="1.5"></path><path d="M1601.03 -96.19L1538 259.39" stroke="hsl(229.39999999999998, 83.5%, 58.9%)" stroke-width="1.5"></path><path d="M1538 259.39L1538 259.39" stroke="hsl(229.39999999999998, 83.5%, 58.9%)" stroke-width="1.5"></path><path d="M1538 259.39L1412.93 386.17" stroke="hsl(229.39999999999998, 83.5%, 58.9%)" stroke-width="1.5"></path><path d="M1538 259.39L1558.05 503.78" stroke="hsl(229.39999999999998, 83.5%, 58.9%)" stroke-width="1.5"></path><path d="M1538 259.39L1413.57 47.85" stroke="hsl(229.39999999999998, 83.5%, 58.9%)" stroke-width="1.5"></path><path d="M1538 259.39L1273.74 242.88" stroke="hsl(229.39999999999998, 83.5%, 58.9%)" stroke-width="1.5"></path><path d="M1538 259.39L1389.83 497.84" stroke="hsl(229.39999999999998, 83.5%, 58.9%)" stroke-width="1.5"></path><path d="M1558.05 503.78L1558.05 503.78" stroke="hsl(229.39999999999998, 83.5%, 58.9%)" stroke-width="1.5"></path><path d="M1558.05 503.78L1412.93 386.17" stroke="hsl(229.39999999999998, 83.5%, 58.9%)" stroke-width="1.5"></path><path d="M1558.05 503.78L1390.92 705.22" stroke="hsl(229.39999999999998, 83.5%, 58.9%)" stroke-width="1.5"></path><path d="M1558.05 503.78L1406.85 259.13" stroke="hsl(229.39999999999998, 83.5%, 58.9%)" stroke-width="1.5"></path><circle r="25" cx="-102.82" cy="787.54" fill="url(#SvgjsRadialGradient1025)"></circle><circle r="25" cx="843.54" cy="637.68" fill="url(#SvgjsRadialGradient1025)"></circle><circle r="25" cx="951.77" cy="688.39" fill="url(#SvgjsRadialGradient1025)"></circle><circle r="25" cx="1096.09" cy="540.18" fill="url(#SvgjsRadialGradient1025)"></circle><circle r="25" cx="1275.09" cy="-59.39" fill="url(#SvgjsRadialGradient1025)"></circle><circle r="25" cx="1255.35" cy="74.62" fill="url(#SvgjsRadialGradient1025)"></circle><circle r="25" cx="1406.85" cy="259.13" fill="url(#SvgjsRadialGradient1025)"></circle><circle r="25" cx="1567.81" cy="838.41" fill="url(#SvgjsRadialGradient1025)"></circle><circle r="5" cx="-84.77" cy="640.25" fill="#899aea"></circle><circle r="5" cx="52.54" cy="692.33" fill="#899aea"></circle><circle r="5" cx="45.41" cy="809.39" fill="#899aea"></circle><circle r="5" cx="239.42" cy="710.4" fill="#899aea"></circle><circle r="5" cx="236.84" cy="853.92" fill="#899aea"></circle><circle r="5" cx="351.12" cy="533.81" fill="#899aea"></circle><circle r="5" cx="371.54" cy="663.3" fill="#899aea"></circle><circle r="5" cx="367.11" cy="817.14" fill="#899aea"></circle><circle r="5" cx="522.48" cy="526.3" fill="#899aea"></circle><circle r="5" cx="494.03" cy="683.86" fill="#899aea"></circle><circle r="5" cx="515.06" cy="802.81" fill="#899aea"></circle><circle r="5" cx="649.79" cy="506.2" fill="#899aea"></circle><circle r="5" cx="658.51" cy="712.4" fill="#899aea"></circle><circle r="5" cx="676.64" cy="836.26" fill="#899aea"></circle><circle r="5" cx="826.96" cy="403.41" fill="#899aea"></circle><circle r="5" cx="837.02" cy="503.28" fill="#899aea"></circle><circle r="5" cx="804.38" cy="809.12" fill="#899aea"></circle><circle r="5" cx="951.06" cy="394.17" fill="#899aea"></circle><circle r="5" cx="951.06" cy="542.79" fill="#899aea"></circle><circle r="5" cx="954.31" cy="829.52" fill="#899aea"></circle><circle r="5" cx="1152.11" cy="-39.93" fill="#899aea"></circle><circle r="5" cx="1140.57" cy="408.8" fill="#899aea"></circle><circle r="5" cx="1128.26" cy="643.05" fill="#899aea"></circle><circle r="5" cx="1137.42" cy="846.64" fill="#899aea"></circle><circle r="5" cx="1273.74" cy="242.88" fill="#899aea"></circle><circle r="5" cx="1257" cy="369.89" fill="#899aea"></circle><circle r="5" cx="1254.93" cy="539.69" fill="#899aea"></circle><circle r="5" cx="1271.16" cy="658.88" fill="#899aea"></circle><circle r="5" cx="1302.98" cy="841.35" fill="#899aea"></circle><circle r="5" cx="1422.02" cy="-97.35" fill="#899aea"></circle><circle r="5" cx="1413.57" cy="47.85" fill="#899aea"></circle><circle r="5" cx="1412.93" cy="386.17" fill="#899aea"></circle><circle r="5" cx="1389.83" cy="497.84" fill="#899aea"></circle><circle r="5" cx="1390.92" cy="705.22" fill="#899aea"></circle><circle r="5" cx="1420.76" cy="806.26" fill="#899aea"></circle><circle r="5" cx="1601.03" cy="-96.19" fill="#899aea"></circle><circle r="5" cx="1538" cy="259.39" fill="#899aea"></circle><circle r="5" cx="1558.05" cy="503.78" fill="#899aea"></circle></g><defs><mask id="SvgjsMask1024"><rect width="1440" height="700" fill="#ffffff"></rect></mask><radialGradient id="SvgjsRadialGradient1025"><stop stop-color="#ffffff" offset="0.1"></stop><stop stop-color="rgba(19, 53, 212, 1)" offset="0.2"></stop><stop stop-color="rgba(19, 53, 212, 0)" offset="1"></stop></radialGradient></defs></svg>